# xmcd CD database file
#
# Track frame offsets:
#	180
#	19667
#	42734
#	63263
#	99698
#	122556
#	152350
#	171320
#	205874
#
# Disc length: 3043 seconds
#
# Revision: 0
# Processed by: cddbd v1.5.2PL0 Copyright (c) Steve Scherf et al.
# Submitted via: CDex 1.51
#
DISCID=730be109
DTITLE=David Gilhooly and Paul Warner - Conversations
DYEAR=1994
DGENRE=Jazz
TTITLE0=Pleggin Boogie
TTITLE1=My Favourite Things
TTITLE2=The Sun Shines Sweet On CJ Street
TTITLE3=Coming Home To You
TTITLE4=Modallegro
TTITLE5='Round Midnight
TTITLE6=Postman Pat
TTITLE7=Angels
TTITLE8=God Bless The Child
EXTD=YEAR: 1994
EXTT0=
EXTT1=
EXTT2=
EXTT3=
EXTT4=
EXTT5=
EXTT6=
EXTT7=
EXTT8=
PLAYORDER=
